<?xml version="1.0" encoding="UTF-8" standalone="no"?>
<svg
   xmlns:dc="http://purl.org/dc/elements/1.1/"
   xmlns:cc="http://creativecommons.org/ns#"
   xmlns:rdf="http://www.w3.org/1999/02/22-rdf-syntax-ns#"
   xmlns:svg="http://www.w3.org/2000/svg"
   xmlns="http://www.w3.org/2000/svg"
   xmlns:xlink="http://www.w3.org/1999/xlink"
   xmlns:sodipodi="http://sodipodi.sourceforge.net/DTD/sodipodi-0.dtd"
   xmlns:inkscape="http://www.inkscape.org/namespaces/inkscape"
   version="1.1"
   preserveAspectRatio="xMidYMid meet"
   viewBox="0 0 260 260"
   width="260"
   height="260"
   id="svg4678"
   sodipodi:docname="logo.svg"
   inkscape:version="0.92.1 r">
  <metadata
     id="metadata4682">
    <rdf:RDF>
      <cc:Work
         rdf:about="">
        <dc:format>image/svg+xml</dc:format>
        <dc:type
           rdf:resource="http://purl.org/dc/dcmitype/StillImage" />
      </cc:Work>
    </rdf:RDF>
  </metadata>
  <sodipodi:namedview
     pagecolor="#ffffff"
     bordercolor="#666666"
     borderopacity="1"
     objecttolerance="10"
     gridtolerance="10"
     guidetolerance="10"
     inkscape:pageopacity="0"
     inkscape:pageshadow="2"
     inkscape:window-width="2558"
     inkscape:window-height="1359"
     id="namedview4680"
     showgrid="false"
     showguides="true"
     inkscape:guide-bbox="true"
     inkscape:zoom="4.5192308"
     inkscape:cx="130"
     inkscape:cy="130"
     inkscape:window-x="0"
     inkscape:window-y="26"
     inkscape:window-maximized="1"
     inkscape:current-layer="layer1">
    <sodipodi:guide
       position="-92.714894,239.86383"
       orientation="0,1"
       id="guide6203"
       inkscape:locked="false" />
    <sodipodi:guide
       position="25.225532,19.914894"
       orientation="0,1"
       id="guide6205"
       inkscape:locked="false" />
    <sodipodi:guide
       position="19.914894,111.5234"
       orientation="1,0"
       id="guide6207"
       inkscape:locked="false" />
    <sodipodi:guide
       position="239.64255,115.94894"
       orientation="1,0"
       id="guide6209"
       inkscape:locked="false" />
  </sodipodi:namedview>
  <defs
     id="defs4616">
    <path
       d="M87.57 165.68L89.06 165.89L90.54 166.16L91.99 166.49L93.42 166.87L94.83 167.31L96.21 167.81L97.57 168.35L98.91 168.94L100.21 169.59L101.49 170.28L102.73 171.02L103.94 171.81L105.12 172.64L106.27 173.51L107.38 174.43L108.46 175.39L109.49 176.39L110.49 177.43L111.45 178.5L112.37 179.61L113.24 180.76L114.07 181.94L114.86 183.15L115.6 184.4L116.29 185.67L116.94 186.98L117.53 188.31L118.08 189.67L118.57 191.05L119.01 192.46L119.39 193.89L119.72 195.35L119.99 196.82L120.2 198.31L120.36 199.83L120.45 201.36L120.48 202.9L120.45 204.44L120.36 205.97L120.2 207.49L119.99 208.98L119.72 210.45L119.39 211.91L119.01 213.34L118.57 214.75L118.08 216.13L117.53 217.49L116.94 218.82L116.29 220.13L115.6 221.4L114.86 222.65L114.07 223.86L113.24 225.04L112.37 226.19L111.45 227.3L110.49 228.37L109.49 229.41L108.46 230.41L107.38 231.37L106.27 232.29L105.12 233.16L103.94 233.99L102.73 234.78L101.49 235.52L100.21 236.21L98.91 236.86L97.57 237.45L96.21 238L94.83 238.49L93.42 238.93L91.99 239.31L90.54 239.64L89.06 239.91L87.57 240.12L86.06 240.28L84.53 240.37L82.98 240.4L81.44 240.37L79.91 240.28L78.4 240.12L76.9 239.91L75.43 239.64L73.98 239.31L72.54 238.93L71.14 238.49L69.75 238L68.39 237.45L67.06 236.86L65.76 236.21L64.48 235.52L63.24 234.78L62.02 233.99L60.84 233.16L59.7 232.29L58.58 231.37L57.51 230.41L56.47 229.41L55.47 228.37L54.51 227.3L53.6 226.19L52.72 225.04L51.89 223.86L51.1 222.65L50.36 221.4L49.67 220.13L49.03 218.82L48.43 217.49L47.89 216.13L47.4 214.75L46.96 213.34L46.57 211.91L46.25 210.45L45.97 208.98L45.76 207.49L45.61 205.97L45.51 204.44L45.48 202.9L45.51 201.36L45.61 199.83L45.76 198.31L45.97 196.82L46.25 195.35L46.57 193.89L46.96 192.46L47.4 191.05L47.89 189.67L48.43 188.31L49.03 186.98L49.67 185.67L50.36 184.4L51.1 183.15L51.89 181.94L52.72 180.76L53.6 179.61L54.51 178.5L55.47 177.43L56.47 176.39L57.51 175.39L58.58 174.43L59.7 173.51L60.84 172.64L62.02 171.81L63.24 171.02L64.48 170.28L65.76 169.59L67.06 168.94L68.39 168.35L69.75 167.81L71.14 167.31L72.54 166.87L73.98 166.49L75.43 166.16L76.9 165.89L78.4 165.68L79.91 165.52L81.44 165.43L82.98 165.4L84.53 165.43L86.06 165.52L86.06 165.52L87.57 165.68ZM78.18 177.71L76.91 177.94L75.67 178.24L74.45 178.6L73.25 179.01L72.09 179.49L70.95 180.02L69.85 180.61L68.78 181.25L67.75 181.94L66.75 182.68L65.79 183.46L64.87 184.29L64 185.17L63.17 186.09L62.38 187.05L61.64 188.04L60.95 189.08L60.31 190.15L59.73 191.25L59.19 192.38L58.72 193.55L58.3 194.74L57.94 195.96L57.64 197.21L57.41 198.48L57.24 199.76L57.14 201.07L57.1 202.4L57.14 203.73L57.24 205.04L57.41 206.33L57.64 207.59L57.94 208.84L58.3 210.06L58.72 211.25L59.19 212.42L59.73 213.55L60.31 214.65L60.95 215.72L61.64 216.76L62.38 217.75L63.17 218.71L64 219.63L64.87 220.51L65.79 221.34L66.75 222.12L67.75 222.86L68.78 223.55L69.85 224.19L70.95 224.78L72.09 225.31L73.25 225.79L74.45 226.2L75.67 226.56L76.91 226.86L78.18 227.09L79.47 227.26L80.78 227.37L82.1 227.4L83.43 227.37L84.74 227.26L86.03 227.09L87.3 226.86L88.54 226.56L89.76 226.2L90.95 225.79L92.12 225.31L93.25 224.78L94.36 224.19L95.43 223.55L96.46 222.86L97.46 222.12L98.42 221.34L99.33 220.51L100.21 219.63L101.04 218.71L101.83 217.75L102.57 216.76L103.26 215.72L103.9 214.65L104.48 213.55L105.01 212.42L105.49 211.25L105.91 210.06L106.27 208.84L106.56 207.59L106.8 206.33L106.97 205.04L107.07 203.73L107.1 202.4L107.07 201.07L106.97 199.76L106.8 198.48L106.56 197.21L106.27 195.96L105.91 194.74L105.49 193.55L105.01 192.38L104.48 191.25L103.9 190.15L103.26 189.08L102.57 188.04L101.83 187.05L101.04 186.09L100.21 185.17L99.33 184.29L98.42 183.46L97.46 182.68L96.46 181.94L95.43 181.25L94.36 180.61L93.25 180.02L92.12 179.49L90.95 179.01L89.76 178.6L88.54 178.24L87.3 177.94L86.03 177.71L84.74 177.54L83.43 177.43L82.1 177.4L80.78 177.43L79.47 177.54L79.47 177.54L78.18 177.71Z"
       id="bam7N7upv" />
    <path
       d="M223.06 165.52L224.57 165.68L226.06 165.89L227.54 166.16L228.99 166.49L230.42 166.87L231.83 167.31L233.21 167.81L234.57 168.35L235.91 168.94L237.21 169.59L238.49 170.28L239.73 171.02L240.94 171.81L242.12 172.64L243.27 173.51L244.38 174.43L245.46 175.39L246.49 176.39L247.49 177.43L248.45 178.5L249.37 179.61L250.24 180.76L251.07 181.94L251.86 183.15L252.6 184.4L253.29 185.67L253.94 186.98L254.53 188.31L255.08 189.67L255.57 191.05L256.01 192.46L256.39 193.89L256.72 195.35L256.99 196.82L257.2 198.31L257.36 199.83L257.45 201.36L257.48 202.9L257.45 204.44L257.36 205.97L257.2 207.49L256.99 208.98L256.72 210.45L256.39 211.91L256.01 213.34L255.57 214.75L255.08 216.13L254.53 217.49L253.94 218.82L253.29 220.13L252.6 221.4L251.86 222.65L251.07 223.86L250.24 225.04L249.37 226.19L248.45 227.3L247.49 228.37L246.49 229.41L245.46 230.41L244.38 231.37L243.27 232.29L242.12 233.16L240.94 233.99L239.73 234.78L238.49 235.52L237.21 236.21L235.91 236.86L234.57 237.45L233.21 238L231.83 238.49L230.42 238.93L228.99 239.31L227.54 239.64L226.06 239.91L224.57 240.12L223.06 240.28L221.53 240.37L219.98 240.4L218.44 240.37L216.91 240.28L215.4 240.12L213.9 239.91L212.43 239.64L210.98 239.31L209.54 238.93L208.14 238.49L206.75 238L205.39 237.45L204.06 236.86L202.76 236.21L201.48 235.52L200.24 234.78L199.02 233.99L197.84 233.16L196.7 232.29L195.58 231.37L194.51 230.41L193.47 229.41L192.47 228.37L191.51 227.3L190.6 226.19L189.72 225.04L188.89 223.86L188.1 222.65L187.36 221.4L186.67 220.13L186.03 218.82L185.43 217.49L184.89 216.13L184.4 214.75L183.96 213.34L183.57 211.91L183.25 210.45L182.97 208.98L182.76 207.49L182.61 205.97L182.51 204.44L182.48 202.9L182.51 201.36L182.61 199.83L182.76 198.31L182.97 196.82L183.25 195.35L183.57 193.89L183.96 192.46L184.4 191.05L184.89 189.67L185.43 188.31L186.03 186.98L186.67 185.67L187.36 184.4L188.1 183.15L188.89 181.94L189.72 180.76L190.6 179.61L191.51 178.5L192.47 177.43L193.47 176.39L194.51 175.39L195.58 174.43L196.7 173.51L197.84 172.64L199.02 171.81L200.24 171.02L201.48 170.28L202.76 169.59L204.06 168.94L205.39 168.35L206.75 167.81L208.14 167.31L209.54 166.87L210.98 166.49L212.43 166.16L213.9 165.89L215.4 165.68L216.91 165.52L218.44 165.43L219.98 165.4L221.53 165.43L223.06 165.52ZM217.35 177.54L216.06 177.71L214.79 177.94L213.55 178.24L212.33 178.6L211.13 179.01L209.97 179.49L208.83 180.02L207.73 180.61L206.66 181.25L205.63 181.94L204.63 182.68L203.67 183.46L202.75 184.29L201.88 185.17L201.04 186.09L200.26 187.05L199.52 188.04L198.83 189.08L198.19 190.15L197.6 191.25L197.07 192.38L196.6 193.55L196.18 194.74L195.82 195.96L195.52 197.21L195.29 198.48L195.12 199.76L195.02 201.07L194.98 202.4L195.02 203.73L195.12 205.04L195.29 206.33L195.52 207.59L195.82 208.84L196.18 210.06L196.6 211.25L197.07 212.42L197.6 213.55L198.19 214.65L198.83 215.72L199.52 216.76L200.26 217.75L201.04 218.71L201.88 219.63L202.75 220.51L203.67 221.34L204.63 222.12L205.63 222.86L206.66 223.55L207.73 224.19L208.83 224.78L209.97 225.31L211.13 225.79L212.33 226.2L213.55 226.56L214.79 226.86L216.06 227.09L217.35 227.26L218.66 227.37L219.98 227.4L221.31 227.37L222.62 227.26L223.91 227.09L225.18 226.86L226.42 226.56L227.64 226.2L228.83 225.79L230 225.31L231.13 224.78L232.24 224.19L233.31 223.55L234.34 222.86L235.34 222.12L236.3 221.34L237.21 220.51L238.09 219.63L238.92 218.71L239.71 217.75L240.45 216.76L241.14 215.72L241.77 214.65L242.36 213.55L242.89 212.42L243.37 211.25L243.79 210.06L244.14 208.84L244.44 207.59L244.68 206.33L244.85 205.04L244.95 203.73L244.98 202.4L244.95 201.07L244.85 199.76L244.68 198.48L244.44 197.21L244.14 195.96L243.79 194.74L243.37 193.55L242.89 192.38L242.36 191.25L241.77 190.15L241.14 189.08L240.45 188.04L239.71 187.05L238.92 186.09L238.09 185.17L237.21 184.29L236.3 183.46L235.34 182.68L234.34 181.94L233.31 181.25L232.24 180.61L231.13 180.02L230 179.49L228.83 179.01L227.64 178.6L226.42 178.24L225.18 177.94L223.91 177.71L222.62 177.54L221.31 177.43L219.98 177.4L218.66 177.43L217.35 177.54Z"
       id="a9Bs8raWT" />
    <path
       d="M117.11 145.33C117.7 144.51 118.84 144.34 119.66 144.93C121.53 146.3 125.66 149.31 127.53 150.68C128.35 151.27 128.53 152.42 127.93 153.23C119.97 164.14 97.15 195.39 89.19 206.3C88.59 207.12 87.45 207.3 86.63 206.7C84.76 205.34 80.63 202.32 78.76 200.95C77.95 200.36 77.77 199.22 78.36 198.4C86.33 187.49 109.14 156.24 117.11 145.33Z"
       id="a20DFvJqJs" />
    <path
       d="M144.77 192.99C145.78 192.98 146.61 193.79 146.62 194.79C146.65 197.11 146.71 202.23 146.73 204.54C146.74 205.55 145.94 206.38 144.93 206.39C133.12 206.53 99.52 206.92 87.71 207.05C86.7 207.07 85.87 206.26 85.86 205.25C85.83 202.93 85.77 197.82 85.75 195.5C85.74 194.49 86.54 193.67 87.55 193.65C99.36 193.52 132.96 193.13 144.77 192.99Z"
       id="anPEx3KCd" />
    <path
       d="M154.47 199.84C154.85 200.77 154.4 201.84 153.46 202.21C151.32 203.08 146.57 205 144.42 205.87C143.49 206.24 142.42 205.79 142.05 204.86C136.29 190.6 119.69 149.51 113.94 135.25C113.56 134.32 114.01 133.25 114.94 132.88C117.09 132.01 121.84 130.09 123.98 129.23C124.92 128.85 125.98 129.3 126.36 130.23C132.12 144.49 148.71 185.58 154.47 199.84Z"
       id="b1teQt9qdl" />
    <path
       d="M135.85 135.06C136.48 135.07 137 134.56 137 133.93C137.02 132.48 137.06 129.28 137.08 127.83C137.08 127.2 136.58 126.68 135.95 126.67C129.4 126.6 110.92 126.38 104.37 126.31C103.74 126.3 103.22 126.8 103.22 127.44C103.2 128.88 103.16 132.09 103.15 133.54C103.14 134.17 103.64 134.69 104.28 134.7C110.82 134.77 129.31 134.99 135.85 135.06Z"
       id="e2b0b1AwS" />
    <path
       d="M200.64 158.85C201.64 158.86 202.47 158.05 202.48 157.04C202.51 154.73 202.57 149.61 202.6 147.29C202.61 146.29 201.8 145.46 200.79 145.45C185.48 145.27 141.38 144.76 126.07 144.58C125.06 144.57 124.24 145.38 124.23 146.38C124.2 148.7 124.14 153.82 124.11 156.13C124.1 157.14 124.91 157.97 125.92 157.98C141.23 158.16 185.33 158.67 200.64 158.85Z"
       id="cj5se1Hrb" />
    <path
       d="M148.44 205.63C147.63 206.24 146.49 206.07 145.88 205.27C144.5 203.41 141.43 199.32 140.04 197.46C139.44 196.66 139.6 195.51 140.41 194.91C153.45 185.15 191.1 156.96 204.13 147.21C204.94 146.6 206.08 146.77 206.69 147.57C208.08 149.43 211.14 153.52 212.53 155.38C213.13 156.18 212.97 157.33 212.16 157.93C199.13 167.69 161.48 195.88 148.44 205.63Z"
       id="f51Y1gy7tt" />
    <path
       d="M228.35 200.95C228.6 201.93 228.02 202.93 227.04 203.18C224.81 203.77 219.85 205.07 217.61 205.65C216.64 205.91 215.64 205.33 215.39 204.35C210.99 187.59 198.27 139.07 193.88 122.31C193.62 121.33 194.2 120.33 195.18 120.08C197.42 119.49 202.37 118.19 204.61 117.6C205.58 117.35 206.58 117.93 206.84 118.91C211.23 135.67 223.95 184.19 228.35 200.95Z"
       id="c9WD5w7Jk" />
    <path
       d="M209.82 118.09C210.44 118.23 210.83 118.84 210.69 119.46C210.37 120.87 209.66 124 209.34 125.41C209.21 126.03 208.59 126.42 207.98 126.28C201.6 124.84 183.56 120.77 177.18 119.33C176.56 119.19 176.18 118.58 176.31 117.96C176.63 116.55 177.34 113.42 177.66 112.01C177.8 111.39 178.41 111.01 179.02 111.14C185.41 112.58 203.44 116.65 209.82 118.09Z"
       id="c2PUSI53wY" />
    <path
       d="M0 0L29.5 0L29.5 240.4L0 240.4L0 0Z"
       id="a1aJYvwBy" />
    <path
       d="M0.85 0L163.35 0L163.35 26.5L0.85 26.5L0.85 0Z"
       id="f5lqjdWzZW" />
    <path
       d="M3.5 83.5L122 83.5L122 110L3.5 110L3.5 83.5Z"
       id="a7Wgn7fYh" />
    <path
       d="M395.25 286.75L395.29 286.75L395.34 286.76L395.39 286.77L395.43 286.79L395.47 286.8L395.51 286.82L395.55 286.84L395.59 286.86L395.63 286.89L395.67 286.92L395.7 286.94L395.74 286.98L395.77 287.01L395.8 287.04L395.83 287.08L395.87 287.12L395.9 287.16L395.92 287.2L395.95 287.24L395.98 287.29L396.01 287.33L396.03 287.38L396.06 287.43L396.08 287.48L396.11 287.53L396.13 287.59L396.16 287.64L396.18 287.7L396.2 287.75L396.22 287.81L396.25 287.87L396.27 287.93L396.29 287.99L396.31 288.05L396.33 288.11L396.35 288.18L396.37 288.24L396.4 288.3L397.48 292.36L397.82 292.46L398.57 292.73L399.3 293.02L400.02 293.35L400.73 293.7L400.79 293.73L404.43 291.62L404.49 291.59L404.55 291.56L404.61 291.53L404.67 291.5L404.73 291.47L404.79 291.44L404.85 291.42L404.9 291.39L404.96 291.36L405.02 291.34L405.07 291.32L405.13 291.3L405.18 291.28L405.24 291.26L405.29 291.24L405.34 291.22L405.39 291.21L405.45 291.19L405.5 291.18L405.55 291.17L405.6 291.16L405.65 291.15L405.7 291.15L405.74 291.15L405.79 291.14L405.84 291.14L405.88 291.15L405.93 291.15L405.97 291.16L406.02 291.17L406.06 291.18L406.11 291.19L406.15 291.21L406.19 291.23L406.23 291.25L406.27 291.27L406.31 291.3L406.35 291.33L406.38 291.36L406.42 291.4L411.73 296.7L411.76 296.74L411.79 296.78L411.82 296.81L411.85 296.85L411.87 296.89L411.9 296.94L411.92 296.98L411.93 297.02L411.95 297.07L411.96 297.11L411.97 297.16L411.98 297.2L411.99 297.25L411.99 297.3L411.99 297.35L411.99 297.39L411.99 297.44L411.99 297.49L411.98 297.54L411.97 297.6L411.96 297.65L411.95 297.7L411.94 297.75L411.92 297.8L411.91 297.86L411.89 297.91L411.87 297.97L411.85 298.02L411.83 298.07L411.8 298.13L411.78 298.18L411.75 298.24L411.73 298.3L411.7 298.35L411.67 298.41L411.64 298.46L411.61 298.52L411.57 298.58L411.54 298.63L411.5 298.69L409.4 302.33L409.44 302.41L409.79 303.11L410.11 303.83L410.41 304.57L410.67 305.32L410.78 305.66L414.83 306.74L414.9 306.76L414.96 306.77L415.02 306.79L415.09 306.81L415.15 306.82L415.21 306.84L415.27 306.86L415.33 306.88L415.38 306.9L415.44 306.92L415.5 306.95L415.55 306.97L415.6 306.99L415.66 307.02L415.71 307.04L415.76 307.07L415.8 307.1L415.85 307.12L415.89 307.15L415.94 307.18L415.98 307.21L416.02 307.24L416.06 307.28L416.09 307.31L416.13 307.35L416.16 307.38L416.19 307.42L416.22 307.45L416.25 307.49L416.27 307.53L416.3 307.57L416.32 307.62L416.33 307.66L416.35 307.7L416.36 307.75L416.38 307.79L416.38 307.84L416.39 307.89L416.39 307.94L416.4 307.99L416.4 315.49L416.39 315.54L416.39 315.59L416.38 315.64L416.38 315.69L416.36 315.73L416.35 315.78L416.33 315.82L416.32 315.86L416.3 315.9L416.27 315.94L416.25 315.98L416.22 316.01L416.19 316.05L416.16 316.08L416.13 316.12L416.09 316.15L416.06 316.18L416.02 316.21L415.98 316.24L415.94 316.27L415.89 316.3L415.85 316.33L415.8 316.35L415.76 316.38L415.71 316.4L415.66 316.43L415.6 316.45L415.55 316.48L415.5 316.5L415.44 316.52L415.38 316.55L415.33 316.57L415.27 316.59L415.21 316.61L415.15 316.64L415.09 316.66L415.02 316.68L414.96 316.7L414.9 316.72L414.83 316.74L410.78 317.82L410.67 318.16L410.41 318.91L410.11 319.65L409.79 320.37L409.44 321.08L409.4 321.15L411.5 324.78L411.54 324.83L411.57 324.89L411.61 324.95L411.64 325L411.67 325.06L411.7 325.12L411.73 325.17L411.75 325.23L411.78 325.28L411.8 325.34L411.83 325.39L411.85 325.45L411.87 325.5L411.89 325.56L411.91 325.61L411.92 325.66L411.94 325.72L411.95 325.77L411.96 325.82L411.97 325.87L411.98 325.92L411.99 325.97L411.99 326.02L411.99 326.07L411.99 326.12L411.99 326.17L411.99 326.22L411.98 326.26L411.97 326.31L411.96 326.36L411.95 326.4L411.93 326.44L411.92 326.49L411.9 326.53L411.87 326.57L411.85 326.61L411.82 326.65L411.79 326.69L411.76 326.73L411.73 326.77L406.42 332.07L406.38 332.11L406.35 332.14L406.31 332.17L406.27 332.19L406.23 332.22L406.19 332.24L406.15 332.26L406.11 332.27L406.06 332.29L406.02 332.3L405.97 332.31L405.93 332.32L405.88 332.32L405.84 332.32L405.79 332.32L405.74 332.32L405.7 332.32L405.65 332.31L405.6 332.31L405.55 332.3L405.5 332.29L405.45 332.27L405.39 332.26L405.34 332.25L405.29 332.23L405.24 332.21L405.18 332.19L405.13 332.17L405.07 332.15L405.02 332.13L404.96 332.1L404.9 332.08L404.85 332.05L404.79 332.02L404.73 332L404.67 331.97L404.61 331.94L404.55 331.91L404.49 331.88L404.43 331.85L400.8 329.75L400.73 329.79L400.02 330.14L399.3 330.46L398.57 330.75L397.82 331.02L397.48 331.12L396.4 335.18L396.37 335.24L396.35 335.31L396.33 335.37L396.31 335.43L396.29 335.49L396.27 335.55L396.25 335.61L396.22 335.67L396.2 335.73L396.18 335.79L396.16 335.84L396.13 335.9L396.11 335.95L396.08 336L396.06 336.05L396.03 336.1L396.01 336.15L395.98 336.2L395.95 336.24L395.92 336.28L395.9 336.32L395.87 336.36L395.83 336.4L395.8 336.44L395.77 336.47L395.74 336.51L395.7 336.54L395.67 336.57L395.63 336.59L395.59 336.62L395.55 336.64L395.51 336.66L395.47 336.68L395.43 336.7L395.39 336.71L395.34 336.72L395.29 336.73L395.25 336.74L395.2 336.74L395.15 336.74L387.65 336.74L387.59 336.74L387.54 336.74L387.5 336.73L387.45 336.72L387.4 336.71L387.36 336.7L387.31 336.68L387.27 336.66L387.23 336.64L387.19 336.62L387.15 336.59L387.11 336.57L387.07 336.54L387.04 336.51L387 336.47L386.97 336.44L386.93 336.4L386.9 336.36L386.87 336.32L386.84 336.28L386.81 336.24L386.78 336.2L386.75 336.15L386.72 336.1L386.7 336.05L386.67 336L386.65 335.95L386.62 335.9L386.6 335.84L386.58 335.79L386.56 335.73L386.54 335.67L386.52 335.61L386.5 335.55L386.48 335.49L386.46 335.43L386.44 335.37L386.43 335.31L386.41 335.24L386.4 335.18L385.31 331.12L384.98 331.02L384.23 330.75L383.49 330.46L382.77 330.14L382.06 329.79L381.98 329.74L378.36 331.83L378.3 331.87L378.25 331.9L378.19 331.94L378.13 331.97L378.08 332L378.02 332.03L377.97 332.06L377.91 332.08L377.85 332.11L377.8 332.14L377.74 332.16L377.69 332.18L377.64 332.2L377.58 332.22L377.53 332.24L377.47 332.26L377.42 332.27L377.37 332.28L377.32 332.29L377.27 332.3L377.21 332.31L377.16 332.32L377.11 332.32L377.06 332.32L377.02 332.32L376.97 332.32L376.92 332.32L376.87 332.31L376.83 332.3L376.78 332.29L376.74 332.28L376.69 332.26L376.65 332.25L376.61 332.23L376.56 332.21L376.52 332.18L376.48 332.15L376.44 332.12L376.41 332.09L376.37 332.06L371.07 326.75L371.03 326.72L371 326.68L370.97 326.64L370.94 326.6L370.92 326.56L370.9 326.52L370.88 326.48L370.86 326.44L370.85 326.39L370.84 326.35L370.83 326.3L370.82 326.26L370.82 326.21L370.81 326.17L370.81 326.12L370.81 326.07L370.82 326.03L370.82 325.98L370.83 325.93L370.84 325.88L370.85 325.83L370.86 325.78L370.88 325.72L370.89 325.67L370.91 325.62L370.93 325.57L370.95 325.51L370.97 325.46L370.99 325.4L371.01 325.35L371.03 325.29L371.06 325.23L371.09 325.18L371.11 325.12L371.14 325.06L371.17 325L371.2 324.94L371.23 324.88L371.26 324.82L371.29 324.76L373.39 321.14L373.35 321.08L373 320.37L372.68 319.65L372.38 318.91L372.12 318.16L372.01 317.82L367.96 316.74L367.89 316.72L367.83 316.7L367.77 316.68L367.7 316.66L367.64 316.64L367.58 316.61L367.52 316.59L367.46 316.57L367.41 316.55L367.35 316.52L367.29 316.5L367.24 316.48L367.19 316.45L367.14 316.43L367.08 316.4L367.04 316.38L366.99 316.35L366.94 316.33L366.9 316.3L366.85 316.27L366.81 316.24L366.77 316.21L366.73 316.18L366.7 316.15L366.66 316.12L366.63 316.08L366.6 316.05L366.57 316.01L366.54 315.98L366.52 315.94L366.5 315.9L366.48 315.86L366.46 315.82L366.44 315.78L366.43 315.73L366.42 315.69L366.41 315.64L366.4 315.59L366.4 315.54L366.4 315.49L366.4 307.99L366.4 307.94L366.4 307.89L366.41 307.84L366.42 307.79L366.43 307.75L366.44 307.7L366.46 307.66L366.48 307.62L366.5 307.57L366.52 307.53L366.54 307.49L366.57 307.45L366.6 307.42L366.63 307.38L366.66 307.35L366.7 307.31L366.73 307.28L366.77 307.24L366.81 307.21L366.85 307.18L366.9 307.15L366.94 307.12L366.99 307.1L367.04 307.07L367.08 307.04L367.14 307.02L367.19 306.99L367.24 306.97L367.29 306.95L367.35 306.92L367.41 306.9L367.46 306.88L367.52 306.86L367.58 306.84L367.64 306.82L367.7 306.81L367.77 306.79L367.83 306.77L367.89 306.76L367.96 306.74L372.01 305.66L372.12 305.32L372.38 304.57L372.68 303.83L373 303.11L373.35 302.41L373.39 302.34L371.29 298.7L371.26 298.64L371.23 298.58L371.2 298.52L371.17 298.46L371.14 298.41L371.11 298.35L371.09 298.29L371.06 298.23L371.03 298.18L371.01 298.12L370.99 298.07L370.97 298.01L370.95 297.96L370.93 297.9L370.91 297.85L370.89 297.8L370.88 297.74L370.86 297.69L370.85 297.64L370.84 297.59L370.83 297.54L370.82 297.49L370.82 297.44L370.81 297.39L370.81 297.35L370.81 297.3L370.82 297.25L370.82 297.21L370.83 297.16L370.84 297.12L370.85 297.07L370.86 297.03L370.88 296.99L370.9 296.95L370.92 296.91L370.94 296.87L370.97 296.83L371 296.79L371.03 296.75L371.07 296.71L376.37 291.41L376.41 291.38L376.44 291.34L376.48 291.31L376.52 291.29L376.56 291.26L376.61 291.24L376.65 291.22L376.69 291.2L376.74 291.19L376.78 291.17L376.83 291.16L376.87 291.16L376.92 291.15L376.97 291.15L377.02 291.14L377.06 291.14L377.11 291.15L377.16 291.15L377.21 291.16L377.27 291.16L377.32 291.17L377.37 291.18L377.42 291.2L377.47 291.21L377.53 291.23L377.58 291.25L377.64 291.27L377.69 291.29L377.74 291.31L377.8 291.33L377.85 291.36L377.91 291.38L377.97 291.41L378.02 291.44L378.08 291.47L378.13 291.5L378.19 291.53L378.25 291.56L378.3 291.6L378.36 291.63L381.99 293.74L382.06 293.7L382.77 293.35L383.49 293.02L384.23 292.73L384.98 292.46L385.31 292.36L386.4 288.3L386.41 288.24L386.43 288.18L386.44 288.11L386.46 288.05L386.48 287.99L386.5 287.93L386.52 287.87L386.54 287.81L386.56 287.75L386.58 287.7L386.6 287.64L386.62 287.59L386.65 287.53L386.67 287.48L386.7 287.43L386.72 287.38L386.75 287.33L386.78 287.29L386.81 287.24L386.84 287.2L386.87 287.16L386.9 287.12L386.93 287.08L386.97 287.04L387 287.01L387.04 286.98L387.07 286.94L387.11 286.92L387.15 286.89L387.19 286.86L387.23 286.84L387.27 286.82L387.31 286.8L387.36 286.79L387.4 286.77L387.45 286.76L387.5 286.75L387.54 286.75L387.59 286.74L387.65 286.74L395.15 286.74L395.2 286.74L395.25 286.75ZM390.5 300.84L390.06 300.88L389.62 300.95L389.19 301.03L388.77 301.12L388.35 301.23L387.94 301.36L387.53 301.5L387.14 301.66L386.75 301.84L386.37 302.02L386 302.23L385.63 302.44L385.28 302.67L384.94 302.91L384.6 303.17L384.28 303.44L383.96 303.72L383.66 304.01L383.37 304.31L383.09 304.62L382.82 304.95L382.57 305.28L382.33 305.63L382.1 305.98L381.88 306.34L381.68 306.71L381.49 307.1L381.32 307.48L381.16 307.88L381.02 308.28L380.89 308.69L380.78 309.11L380.68 309.54L380.6 309.97L380.54 310.4L380.49 310.84L380.47 311.29L380.46 311.74L380.47 312.19L380.49 312.64L380.54 313.08L380.6 313.52L380.68 313.95L380.78 314.37L380.89 314.79L381.02 315.2L381.16 315.6L381.32 316L381.49 316.39L381.68 316.77L381.88 317.14L382.1 317.5L382.33 317.86L382.57 318.2L382.82 318.53L383.09 318.86L383.37 319.17L383.66 319.47L383.96 319.77L384.28 320.05L384.6 320.31L384.94 320.57L385.28 320.81L385.63 321.04L386 321.26L386.37 321.46L386.75 321.65L387.14 321.82L387.53 321.98L387.94 322.12L388.35 322.25L388.77 322.36L389.19 322.46L389.62 322.54L390.06 322.6L390.5 322.64L390.94 322.67L391.4 322.68L391.85 322.67L392.29 322.64L392.73 322.6L393.17 322.54L393.6 322.46L394.02 322.36L394.44 322.25L394.85 322.12L395.26 321.98L395.65 321.82L396.04 321.65L396.42 321.46L396.79 321.26L397.16 321.04L397.51 320.81L397.86 320.57L398.19 320.31L398.51 320.05L398.83 319.77L399.13 319.47L399.42 319.17L399.7 318.86L399.97 318.53L400.22 318.2L400.47 317.86L400.69 317.5L400.91 317.14L401.11 316.77L401.3 316.39L401.47 316L401.63 315.6L401.78 315.2L401.9 314.79L402.02 314.37L402.11 313.95L402.19 313.52L402.25 313.08L402.3 312.64L402.32 312.19L402.33 311.74L402.32 311.29L402.3 310.84L402.25 310.4L402.19 309.97L402.11 309.54L402.02 309.11L401.9 308.69L401.78 308.28L401.63 307.88L401.47 307.48L401.3 307.1L401.11 306.71L400.91 306.34L400.69 305.98L400.47 305.63L400.22 305.28L399.97 304.95L399.7 304.62L399.42 304.31L399.13 304.01L398.83 303.72L398.51 303.44L398.19 303.17L397.86 302.91L397.51 302.67L397.16 302.44L396.79 302.23L396.42 302.02L396.04 301.84L395.65 301.66L395.26 301.5L394.85 301.36L394.44 301.23L394.02 301.12L393.6 301.03L393.17 300.95L392.73 300.88L392.29 300.84L391.85 300.81L391.4 300.8L390.94 300.81L390.5 300.84Z"
       id="a1qxib6jNH" />
  </defs>
  <g
     inkscape:groupmode="layer"
     id="layer1"
     inkscape:label="Layer 1">
    <rect
       style="opacity:0;fill:#550000;fill-opacity:1;stroke:#000000;stroke-opacity:1"
       id="rect6177"
       width="61.072342"
       height="27.659575"
       x="34.740425"
       y="23.676596" />
    <rect
       style="opacity:1;fill:#ffffff;fill-opacity:1;stroke:#1f36d4;stroke-width:16.74834442;stroke-linecap:round;stroke-linejoin:round;stroke-miterlimit:4;stroke-dasharray:none;stroke-opacity:1;paint-order:normal"
       id="rect6199"
       width="243.7655"
       height="243.32297"
       x="8.338522"
       y="8.5597973" />
  </g>
  <g
     id="g4676"
     transform="translate(-21.906383,-54.876596)">
    <g
       id="g4674">
      <g
         id="g4620">
        <use
           xlink:href="#bam7N7upv"
           id="use4618"
           style="opacity:1;fill:#1f36d4;fill-opacity:1"
           x="0"
           y="0"
           width="100%"
           height="100%" />
      </g>
      <g
         id="g4624">
        <use
           xlink:href="#a9Bs8raWT"
           id="use4622"
           style="opacity:1;fill:#1f36d4;fill-opacity:1"
           x="0"
           y="0"
           width="100%"
           height="100%" />
      </g>
      <g
         id="g4628">
        <use
           xlink:href="#a20DFvJqJs"
           id="use4626"
           style="opacity:1;fill:#1f36d4;fill-opacity:1"
           x="0"
           y="0"
           width="100%"
           height="100%" />
      </g>
      <g
         id="g4632">
        <use
           xlink:href="#anPEx3KCd"
           id="use4630"
           style="opacity:1;fill:#1f36d4;fill-opacity:1"
           x="0"
           y="0"
           width="100%"
           height="100%" />
      </g>
      <g
         id="g4636">
        <use
           xlink:href="#b1teQt9qdl"
           id="use4634"
           style="opacity:1;fill:#1f36d4;fill-opacity:1"
           x="0"
           y="0"
           width="100%"
           height="100%" />
      </g>
      <g
         id="g4640">
        <use
           xlink:href="#e2b0b1AwS"
           id="use4638"
           style="opacity:1;fill:#1f36d4;fill-opacity:1"
           x="0"
           y="0"
           width="100%"
           height="100%" />
      </g>
      <g
         id="g4644">
        <use
           xlink:href="#cj5se1Hrb"
           id="use4642"
           style="opacity:1;fill:#1f36d4;fill-opacity:1"
           x="0"
           y="0"
           width="100%"
           height="100%" />
      </g>
      <g
         id="g4648">
        <use
           xlink:href="#f51Y1gy7tt"
           id="use4646"
           style="opacity:1;fill:#1f36d4;fill-opacity:1"
           x="0"
           y="0"
           width="100%"
           height="100%" />
      </g>
      <g
         id="g4652">
        <use
           xlink:href="#c9WD5w7Jk"
           id="use4650"
           style="opacity:1;fill:#1f36d4;fill-opacity:1"
           x="0"
           y="0"
           width="100%"
           height="100%" />
      </g>
      <g
         id="g4656">
        <use
           xlink:href="#c2PUSI53wY"
           id="use4654"
           style="opacity:1;fill:#1f36d4;fill-opacity:1"
           x="0"
           y="0"
           width="100%"
           height="100%" />
      </g>
      <g
         id="g4660" />
      <g
         id="g4664" />
      <g
         id="g4668" />
      <g
         id="g4672">
        <use
           xlink:href="#a1qxib6jNH"
           id="use4670"
           style="opacity:1;fill:#ffffff;fill-opacity:1"
           x="0"
           y="0"
           width="100%"
           height="100%" />
      </g>
    </g>
  </g>
  <rect
     style="opacity:0;fill:#800000;stroke:#000000;stroke-opacity:1"
     id="rect4694"
     width="55.761703"
     height="10.4"
     x="9.2936172"
     y="5.0893617" />
  <rect
     style="opacity:0;fill:#800000;fill-opacity:1;stroke:#000000;stroke-opacity:1"
     id="rect4714"
     width="23.897873"
     height="26.110638"
     x="9.2936172"
     y="15.489361" />
  <rect
     style="opacity:0;fill:#800000;fill-opacity:1;stroke:#000000;stroke-opacity:1"
     id="rect6174"
     width="173.25957"
     height="199.81276"
     x="27.659575"
     y="17.923405" />
</svg>
